<mxfile host="app.diagrams.net" agent="Mozilla/5.0 (Windows NT 10.0; Win64; x64) AppleWebKit/537.36 (KHTML, like Gecko) Chrome/138.0.0.0 Safari/537.36 Edg/138.0.0.0" version="28.0.7">
  <diagram name="Page-1" id="b-Xs3cdbDtGds40RAGC_">
    <mxGraphModel dx="1658" dy="724" grid="1" gridSize="10" guides="1" tooltips="1" connect="1" arrows="1" fold="1" page="1" pageScale="1" pageWidth="1100" pageHeight="850" math="0" shadow="0">
      <root>
        <mxCell id="0" />
        <mxCell id="1" parent="0" />
        <mxCell id="x1a_r0KJdxYmS9m32D6m-1" value="" style="whiteSpace=wrap;html=1;fillStyle=auto;dashed=1;dashPattern=8 8;strokeColor=light-dark(#000000,#1F4EA9);" vertex="1" parent="1">
          <mxGeometry x="150" y="164" width="126" height="607" as="geometry" />
        </mxCell>
        <mxCell id="YlNA492H2YgrrMgGbjNw-83" value="" style="whiteSpace=wrap;html=1;fillStyle=auto;dashed=1;dashPattern=8 8;strokeColor=light-dark(#000000,#1F4EA9);" parent="1" vertex="1">
          <mxGeometry x="622" y="161" width="128" height="607" as="geometry" />
        </mxCell>
        <mxCell id="YlNA492H2YgrrMgGbjNw-76" value="" style="whiteSpace=wrap;html=1;fillStyle=auto;dashed=1;dashPattern=8 8;strokeColor=light-dark(#000000,#1F4EA9);" parent="1" vertex="1">
          <mxGeometry x="294" y="164" width="126" height="607" as="geometry" />
        </mxCell>
        <mxCell id="YlNA492H2YgrrMgGbjNw-29" value="" style="endArrow=classic;html=1;rounded=0;strokeWidth=3;" parent="1" edge="1">
          <mxGeometry width="50" height="50" relative="1" as="geometry">
            <mxPoint x="343" y="507.28999999999996" as="sourcePoint" />
            <mxPoint x="343" y="308" as="targetPoint" />
          </mxGeometry>
        </mxCell>
        <mxCell id="YlNA492H2YgrrMgGbjNw-1" value="" style="whiteSpace=wrap;html=1;fillStyle=auto;dashed=1;dashPattern=8 8;strokeColor=light-dark(#000000,#1F4EA9);" parent="1" vertex="1">
          <mxGeometry x="467" y="163" width="107" height="607" as="geometry" />
        </mxCell>
        <mxCell id="YlNA492H2YgrrMgGbjNw-2" value="" style="rounded=0;whiteSpace=wrap;html=1;dashed=1;dashPattern=8 8;strokeColor=light-dark(#000000,#1F4EA9);" parent="1" vertex="1">
          <mxGeometry x="772" y="163" width="140" height="607" as="geometry" />
        </mxCell>
        <mxCell id="YlNA492H2YgrrMgGbjNw-3" value="Prod release" style="text;html=1;align=center;verticalAlign=middle;resizable=0;points=[];autosize=1;strokeColor=none;fillColor=none;" parent="1" vertex="1">
          <mxGeometry x="797" y="769" width="90" height="30" as="geometry" />
        </mxCell>
        <mxCell id="YlNA492H2YgrrMgGbjNw-4" value="" style="endArrow=none;html=1;rounded=0;fillColor=#60a917;strokeColor=#2D7600;" parent="1" edge="1">
          <mxGeometry width="50" height="50" relative="1" as="geometry">
            <mxPoint x="90" y="507" as="sourcePoint" />
            <mxPoint x="1020" y="507" as="targetPoint" />
          </mxGeometry>
        </mxCell>
        <mxCell id="YlNA492H2YgrrMgGbjNw-5" value="DEV" style="edgeLabel;html=1;align=center;verticalAlign=middle;resizable=0;points=[];" parent="YlNA492H2YgrrMgGbjNw-4" vertex="1" connectable="0">
          <mxGeometry x="0.9487" y="3" relative="1" as="geometry">
            <mxPoint as="offset" />
          </mxGeometry>
        </mxCell>
        <mxCell id="YlNA492H2YgrrMgGbjNw-6" value="" style="endArrow=none;html=1;rounded=0;fillColor=#1ba1e2;strokeColor=#006EAF;" parent="1" edge="1">
          <mxGeometry width="50" height="50" relative="1" as="geometry">
            <mxPoint x="130" y="617" as="sourcePoint" />
            <mxPoint x="1030" y="617" as="targetPoint" />
          </mxGeometry>
        </mxCell>
        <mxCell id="YlNA492H2YgrrMgGbjNw-7" value="UAT" style="edgeLabel;html=1;align=center;verticalAlign=middle;resizable=0;points=[];" parent="YlNA492H2YgrrMgGbjNw-6" vertex="1" connectable="0">
          <mxGeometry x="0.9034" relative="1" as="geometry">
            <mxPoint as="offset" />
          </mxGeometry>
        </mxCell>
        <mxCell id="YlNA492H2YgrrMgGbjNw-8" value="" style="endArrow=none;html=1;rounded=0;fillColor=#e51400;strokeColor=#B20000;" parent="1" edge="1">
          <mxGeometry width="50" height="50" relative="1" as="geometry">
            <mxPoint x="50" y="720" as="sourcePoint" />
            <mxPoint x="1040" y="720" as="targetPoint" />
          </mxGeometry>
        </mxCell>
        <mxCell id="YlNA492H2YgrrMgGbjNw-9" value="Master" style="edgeLabel;html=1;align=center;verticalAlign=middle;resizable=0;points=[];" parent="YlNA492H2YgrrMgGbjNw-8" vertex="1" connectable="0">
          <mxGeometry x="0.8468" y="2" relative="1" as="geometry">
            <mxPoint x="29" as="offset" />
          </mxGeometry>
        </mxCell>
        <mxCell id="YlNA492H2YgrrMgGbjNw-10" style="edgeStyle=orthogonalEdgeStyle;rounded=0;orthogonalLoop=1;jettySize=auto;html=1;" parent="1" edge="1">
          <mxGeometry relative="1" as="geometry">
            <mxPoint x="247" y="507.28999999999996" as="targetPoint" />
            <mxPoint x="247" y="437.28999999999996" as="sourcePoint" />
          </mxGeometry>
        </mxCell>
        <mxCell id="YlNA492H2YgrrMgGbjNw-11" value="Story" style="edgeLabel;html=1;align=center;verticalAlign=middle;resizable=0;points=[];" parent="YlNA492H2YgrrMgGbjNw-10" vertex="1" connectable="0">
          <mxGeometry x="0.8331" y="-2" relative="1" as="geometry">
            <mxPoint y="-34" as="offset" />
          </mxGeometry>
        </mxCell>
        <mxCell id="YlNA492H2YgrrMgGbjNw-14" style="edgeStyle=orthogonalEdgeStyle;rounded=0;orthogonalLoop=1;jettySize=auto;html=1;" parent="1" edge="1">
          <mxGeometry relative="1" as="geometry">
            <mxPoint x="333" y="507.28999999999996" as="targetPoint" />
            <mxPoint x="333" y="437.28999999999996" as="sourcePoint" />
          </mxGeometry>
        </mxCell>
        <mxCell id="YlNA492H2YgrrMgGbjNw-15" value="Bugfix1" style="edgeLabel;html=1;align=center;verticalAlign=middle;resizable=0;points=[];" parent="YlNA492H2YgrrMgGbjNw-14" vertex="1" connectable="0">
          <mxGeometry x="0.7065" relative="1" as="geometry">
            <mxPoint x="5" y="-20" as="offset" />
          </mxGeometry>
        </mxCell>
        <mxCell id="YlNA492H2YgrrMgGbjNw-16" style="edgeStyle=orthogonalEdgeStyle;rounded=0;orthogonalLoop=1;jettySize=auto;html=1;" parent="1" edge="1">
          <mxGeometry relative="1" as="geometry">
            <mxPoint x="518" y="507.28999999999996" as="targetPoint" />
            <mxPoint x="518" y="437.28999999999996" as="sourcePoint" />
          </mxGeometry>
        </mxCell>
        <mxCell id="YlNA492H2YgrrMgGbjNw-17" value="Bugfix3" style="edgeLabel;html=1;align=center;verticalAlign=middle;resizable=0;points=[];" parent="YlNA492H2YgrrMgGbjNw-16" vertex="1" connectable="0">
          <mxGeometry x="0.5011" y="-2" relative="1" as="geometry">
            <mxPoint as="offset" />
          </mxGeometry>
        </mxCell>
        <mxCell id="YlNA492H2YgrrMgGbjNw-18" value="`" style="endArrow=classic;html=1;rounded=0;" parent="1" edge="1">
          <mxGeometry width="50" height="50" relative="1" as="geometry">
            <mxPoint x="20" y="120" as="sourcePoint" />
            <mxPoint x="1040" y="119" as="targetPoint" />
          </mxGeometry>
        </mxCell>
        <mxCell id="YlNA492H2YgrrMgGbjNw-19" value="Time" style="edgeLabel;html=1;align=center;verticalAlign=middle;resizable=0;points=[];" parent="YlNA492H2YgrrMgGbjNw-18" vertex="1" connectable="0">
          <mxGeometry x="0.877" y="3" relative="1" as="geometry">
            <mxPoint as="offset" />
          </mxGeometry>
        </mxCell>
        <mxCell id="YlNA492H2YgrrMgGbjNw-20" value="" style="endArrow=none;html=1;rounded=0;" parent="1" edge="1">
          <mxGeometry width="50" height="50" relative="1" as="geometry">
            <mxPoint x="176" y="438" as="sourcePoint" />
            <mxPoint x="1026" y="438" as="targetPoint" />
          </mxGeometry>
        </mxCell>
        <mxCell id="YlNA492H2YgrrMgGbjNw-21" value="Feature1" style="edgeLabel;html=1;align=center;verticalAlign=middle;resizable=0;points=[];" parent="YlNA492H2YgrrMgGbjNw-20" vertex="1" connectable="0">
          <mxGeometry x="0.6556" y="1" relative="1" as="geometry">
            <mxPoint x="83" as="offset" />
          </mxGeometry>
        </mxCell>
        <mxCell id="YlNA492H2YgrrMgGbjNw-22" value="" style="endArrow=classic;html=1;rounded=0;" parent="1" edge="1">
          <mxGeometry width="50" height="50" relative="1" as="geometry">
            <mxPoint x="181" y="717.29" as="sourcePoint" />
            <mxPoint x="181" y="437.28999999999996" as="targetPoint" />
          </mxGeometry>
        </mxCell>
        <mxCell id="YlNA492H2YgrrMgGbjNw-23" value="Create" style="edgeLabel;html=1;align=center;verticalAlign=middle;resizable=0;points=[];" parent="YlNA492H2YgrrMgGbjNw-22" vertex="1" connectable="0">
          <mxGeometry x="-0.7429" y="1" relative="1" as="geometry">
            <mxPoint as="offset" />
          </mxGeometry>
        </mxCell>
        <mxCell id="YlNA492H2YgrrMgGbjNw-24" value="" style="endArrow=classic;html=1;rounded=0;" parent="1" edge="1">
          <mxGeometry width="50" height="50" relative="1" as="geometry">
            <mxPoint x="393" y="437.28999999999996" as="sourcePoint" />
            <mxPoint x="393" y="507.28999999999996" as="targetPoint" />
          </mxGeometry>
        </mxCell>
        <mxCell id="YlNA492H2YgrrMgGbjNw-25" value="Bugfix2" style="edgeLabel;html=1;align=center;verticalAlign=middle;resizable=0;points=[];" parent="YlNA492H2YgrrMgGbjNw-24" vertex="1" connectable="0">
          <mxGeometry x="-0.0476" y="-1" relative="1" as="geometry">
            <mxPoint as="offset" />
          </mxGeometry>
        </mxCell>
        <mxCell id="YlNA492H2YgrrMgGbjNw-26" value="" style="shape=link;html=1;rounded=0;" parent="1" edge="1">
          <mxGeometry width="100" relative="1" as="geometry">
            <mxPoint x="60" y="310" as="sourcePoint" />
            <mxPoint x="1010" y="310" as="targetPoint" />
          </mxGeometry>
        </mxCell>
        <mxCell id="YlNA492H2YgrrMgGbjNw-27" value="QAEnvironment" style="edgeLabel;html=1;align=center;verticalAlign=middle;resizable=0;points=[];" parent="YlNA492H2YgrrMgGbjNw-26" vertex="1" connectable="0">
          <mxGeometry x="0.9074" y="4" relative="1" as="geometry">
            <mxPoint x="1" as="offset" />
          </mxGeometry>
        </mxCell>
        <mxCell id="YlNA492H2YgrrMgGbjNw-28" value="" style="endArrow=classic;html=1;rounded=0;strokeWidth=3;" parent="1" edge="1">
          <mxGeometry width="50" height="50" relative="1" as="geometry">
            <mxPoint x="267" y="507.28999999999996" as="sourcePoint" />
            <mxPoint x="267" y="318" as="targetPoint" />
          </mxGeometry>
        </mxCell>
        <mxCell id="YlNA492H2YgrrMgGbjNw-30" value="" style="shape=link;html=1;rounded=0;" parent="1" edge="1">
          <mxGeometry width="100" relative="1" as="geometry">
            <mxPoint x="60" y="243" as="sourcePoint" />
            <mxPoint x="1010" y="243" as="targetPoint" />
          </mxGeometry>
        </mxCell>
        <mxCell id="YlNA492H2YgrrMgGbjNw-31" value="StageEnvironment" style="edgeLabel;html=1;align=center;verticalAlign=middle;resizable=0;points=[];" parent="YlNA492H2YgrrMgGbjNw-30" vertex="1" connectable="0">
          <mxGeometry x="0.9087" y="-1" relative="1" as="geometry">
            <mxPoint as="offset" />
          </mxGeometry>
        </mxCell>
        <mxCell id="YlNA492H2YgrrMgGbjNw-32" value="" style="endArrow=classic;html=1;rounded=0;fillColor=#a20025;strokeColor=#6F0000;" parent="1" edge="1">
          <mxGeometry width="50" height="50" relative="1" as="geometry">
            <mxPoint x="484" y="437.28999999999996" as="sourcePoint" />
            <mxPoint x="484" y="617.29" as="targetPoint" />
          </mxGeometry>
        </mxCell>
        <mxCell id="YlNA492H2YgrrMgGbjNw-33" value="Merge" style="edgeLabel;html=1;align=center;verticalAlign=middle;resizable=0;points=[];" parent="YlNA492H2YgrrMgGbjNw-32" vertex="1" connectable="0">
          <mxGeometry x="0.5121" y="-1" relative="1" as="geometry">
            <mxPoint as="offset" />
          </mxGeometry>
        </mxCell>
        <mxCell id="YlNA492H2YgrrMgGbjNw-34" value="" style="endArrow=classic;html=1;rounded=0;strokeWidth=3;" parent="1" edge="1">
          <mxGeometry width="50" height="50" relative="1" as="geometry">
            <mxPoint x="501" y="617.29" as="sourcePoint" />
            <mxPoint x="501" y="243" as="targetPoint" />
          </mxGeometry>
        </mxCell>
        <mxCell id="YlNA492H2YgrrMgGbjNw-35" value="" style="endArrow=classic;html=1;rounded=0;fillColor=#e51400;strokeColor=#B20000;" parent="1" edge="1">
          <mxGeometry width="50" height="50" relative="1" as="geometry">
            <mxPoint x="532" y="437.28999999999996" as="sourcePoint" />
            <mxPoint x="532" y="617.29" as="targetPoint" />
          </mxGeometry>
        </mxCell>
        <mxCell id="YlNA492H2YgrrMgGbjNw-36" value="Merge" style="edgeLabel;html=1;align=center;verticalAlign=middle;resizable=0;points=[];" parent="YlNA492H2YgrrMgGbjNw-35" vertex="1" connectable="0">
          <mxGeometry x="0.2137" y="-1" relative="1" as="geometry">
            <mxPoint as="offset" />
          </mxGeometry>
        </mxCell>
        <mxCell id="YlNA492H2YgrrMgGbjNw-37" value="" style="endArrow=classic;html=1;rounded=0;strokeWidth=3;" parent="1" edge="1">
          <mxGeometry width="50" height="50" relative="1" as="geometry">
            <mxPoint x="552" y="617.29" as="sourcePoint" />
            <mxPoint x="552" y="243" as="targetPoint" />
          </mxGeometry>
        </mxCell>
        <mxCell id="YlNA492H2YgrrMgGbjNw-38" value="" style="endArrow=classic;html=1;rounded=0;strokeWidth=3;" parent="1" edge="1">
          <mxGeometry width="50" height="50" relative="1" as="geometry">
            <mxPoint x="403" y="507.28999999999996" as="sourcePoint" />
            <mxPoint x="403" y="308" as="targetPoint" />
          </mxGeometry>
        </mxCell>
        <mxCell id="YlNA492H2YgrrMgGbjNw-40" value="" style="endArrow=classic;html=1;rounded=0;fillColor=#a20025;strokeColor=#6F0000;" parent="1" edge="1">
          <mxGeometry width="50" height="50" relative="1" as="geometry">
            <mxPoint x="368" y="366" as="sourcePoint" />
            <mxPoint x="368" y="506" as="targetPoint" />
          </mxGeometry>
        </mxCell>
        <mxCell id="YlNA492H2YgrrMgGbjNw-41" value="Some other feature fix" style="edgeLabel;html=1;align=center;verticalAlign=middle;resizable=0;points=[];" parent="YlNA492H2YgrrMgGbjNw-40" vertex="1" connectable="0">
          <mxGeometry x="-0.6429" y="1" relative="1" as="geometry">
            <mxPoint x="-1" y="27" as="offset" />
          </mxGeometry>
        </mxCell>
        <mxCell id="YlNA492H2YgrrMgGbjNw-42" value="" style="shape=link;html=1;rounded=0;" parent="1" edge="1">
          <mxGeometry width="100" relative="1" as="geometry">
            <mxPoint x="60" y="183" as="sourcePoint" />
            <mxPoint x="1010" y="183" as="targetPoint" />
          </mxGeometry>
        </mxCell>
        <mxCell id="YlNA492H2YgrrMgGbjNw-43" value="ProdEnvironment" style="edgeLabel;html=1;align=center;verticalAlign=middle;resizable=0;points=[];" parent="YlNA492H2YgrrMgGbjNw-42" vertex="1" connectable="0">
          <mxGeometry x="0.9074" y="4" relative="1" as="geometry">
            <mxPoint x="1" as="offset" />
          </mxGeometry>
        </mxCell>
        <mxCell id="YlNA492H2YgrrMgGbjNw-44" value="" style="endArrow=classic;html=1;rounded=0;strokeWidth=3;" parent="1" edge="1">
          <mxGeometry width="50" height="50" relative="1" as="geometry">
            <mxPoint x="810" y="720" as="sourcePoint" />
            <mxPoint x="812" y="180" as="targetPoint" />
          </mxGeometry>
        </mxCell>
        <mxCell id="YlNA492H2YgrrMgGbjNw-45" value="" style="endArrow=classic;html=1;rounded=0;" parent="1" edge="1">
          <mxGeometry width="50" height="50" relative="1" as="geometry">
            <mxPoint x="133" y="720" as="sourcePoint" />
            <mxPoint x="133" y="623" as="targetPoint" />
          </mxGeometry>
        </mxCell>
        <mxCell id="YlNA492H2YgrrMgGbjNw-46" value="Create" style="edgeLabel;html=1;align=center;verticalAlign=middle;resizable=0;points=[];" parent="YlNA492H2YgrrMgGbjNw-45" vertex="1" connectable="0">
          <mxGeometry x="-0.0029" y="-4" relative="1" as="geometry">
            <mxPoint as="offset" />
          </mxGeometry>
        </mxCell>
        <mxCell id="YlNA492H2YgrrMgGbjNw-47" value="" style="endArrow=classic;html=1;rounded=0;" parent="1" edge="1">
          <mxGeometry width="50" height="50" relative="1" as="geometry">
            <mxPoint x="93" y="720" as="sourcePoint" />
            <mxPoint x="93" y="513" as="targetPoint" />
          </mxGeometry>
        </mxCell>
        <mxCell id="YlNA492H2YgrrMgGbjNw-48" value="Create" style="edgeLabel;html=1;align=center;verticalAlign=middle;resizable=0;points=[];" parent="YlNA492H2YgrrMgGbjNw-47" vertex="1" connectable="0">
          <mxGeometry x="0.2843" y="2" relative="1" as="geometry">
            <mxPoint as="offset" />
          </mxGeometry>
        </mxCell>
        <mxCell id="YlNA492H2YgrrMgGbjNw-49" value="" style="endArrow=classic;html=1;rounded=0;" parent="1" edge="1">
          <mxGeometry width="50" height="50" relative="1" as="geometry">
            <mxPoint x="848" y="570" as="sourcePoint" />
            <mxPoint x="848" y="720" as="targetPoint" />
          </mxGeometry>
        </mxCell>
        <mxCell id="YlNA492H2YgrrMgGbjNw-50" value="HotFix" style="edgeLabel;html=1;align=center;verticalAlign=middle;resizable=0;points=[];" parent="YlNA492H2YgrrMgGbjNw-49" vertex="1" connectable="0">
          <mxGeometry x="-0.3668" y="-1" relative="1" as="geometry">
            <mxPoint y="21" as="offset" />
          </mxGeometry>
        </mxCell>
        <mxCell id="YlNA492H2YgrrMgGbjNw-51" value="" style="endArrow=classic;html=1;rounded=0;strokeWidth=3;" parent="1" edge="1">
          <mxGeometry width="50" height="50" relative="1" as="geometry">
            <mxPoint x="891" y="713" as="sourcePoint" />
            <mxPoint x="891" y="180" as="targetPoint" />
          </mxGeometry>
        </mxCell>
        <mxCell id="YlNA492H2YgrrMgGbjNw-57" value="" style="endArrow=classic;html=1;rounded=0;strokeWidth=3;" parent="1" edge="1">
          <mxGeometry width="50" height="50" relative="1" as="geometry">
            <mxPoint x="862" y="613" as="sourcePoint" />
            <mxPoint x="862" y="243" as="targetPoint" />
          </mxGeometry>
        </mxCell>
        <mxCell id="YlNA492H2YgrrMgGbjNw-58" value="UAT Test" style="text;html=1;align=center;verticalAlign=middle;whiteSpace=wrap;rounded=0;" parent="1" vertex="1">
          <mxGeometry x="491" y="773" width="60" height="30" as="geometry" />
        </mxCell>
        <mxCell id="YlNA492H2YgrrMgGbjNw-62" value="" style="endArrow=none;html=1;rounded=0;fillColor=#d80073;strokeColor=#A50040;" parent="1" edge="1">
          <mxGeometry width="50" height="50" relative="1" as="geometry">
            <mxPoint x="630" y="660" as="sourcePoint" />
            <mxPoint x="1030" y="660" as="targetPoint" />
          </mxGeometry>
        </mxCell>
        <mxCell id="YlNA492H2YgrrMgGbjNw-63" value="Regression1" style="edgeLabel;html=1;align=center;verticalAlign=middle;resizable=0;points=[];" parent="YlNA492H2YgrrMgGbjNw-62" vertex="1" connectable="0">
          <mxGeometry x="0.8425" y="5" relative="1" as="geometry">
            <mxPoint as="offset" />
          </mxGeometry>
        </mxCell>
        <mxCell id="YlNA492H2YgrrMgGbjNw-64" value="" style="endArrow=classic;html=1;rounded=0;" parent="1" edge="1">
          <mxGeometry width="50" height="50" relative="1" as="geometry">
            <mxPoint x="630" y="720" as="sourcePoint" />
            <mxPoint x="630" y="660" as="targetPoint" />
          </mxGeometry>
        </mxCell>
        <mxCell id="YlNA492H2YgrrMgGbjNw-65" value="" style="endArrow=classic;html=1;rounded=0;" parent="1" edge="1">
          <mxGeometry width="50" height="50" relative="1" as="geometry">
            <mxPoint x="800" y="660" as="sourcePoint" />
            <mxPoint x="800" y="720" as="targetPoint" />
          </mxGeometry>
        </mxCell>
        <mxCell id="YlNA492H2YgrrMgGbjNw-68" value="" style="endArrow=classic;html=1;rounded=0;fillColor=#a20025;strokeColor=#6F0000;" parent="1" edge="1">
          <mxGeometry width="50" height="50" relative="1" as="geometry">
            <mxPoint x="654" y="441.28999999999996" as="sourcePoint" />
            <mxPoint x="654" y="660" as="targetPoint" />
          </mxGeometry>
        </mxCell>
        <mxCell id="YlNA492H2YgrrMgGbjNw-69" value="Merge" style="edgeLabel;html=1;align=center;verticalAlign=middle;resizable=0;points=[];" parent="YlNA492H2YgrrMgGbjNw-68" vertex="1" connectable="0">
          <mxGeometry x="0.5121" y="-1" relative="1" as="geometry">
            <mxPoint as="offset" />
          </mxGeometry>
        </mxCell>
        <mxCell id="YlNA492H2YgrrMgGbjNw-70" value="" style="endArrow=classic;html=1;rounded=0;strokeWidth=3;" parent="1" edge="1">
          <mxGeometry width="50" height="50" relative="1" as="geometry">
            <mxPoint x="670" y="660" as="sourcePoint" />
            <mxPoint x="670" y="247" as="targetPoint" />
          </mxGeometry>
        </mxCell>
        <mxCell id="YlNA492H2YgrrMgGbjNw-73" value="" style="endArrow=classic;html=1;rounded=0;strokeWidth=3;" parent="1" edge="1">
          <mxGeometry width="50" height="50" relative="1" as="geometry">
            <mxPoint x="725" y="660" as="sourcePoint" />
            <mxPoint x="725" y="247" as="targetPoint" />
          </mxGeometry>
        </mxCell>
        <mxCell id="YlNA492H2YgrrMgGbjNw-74" value="" style="endArrow=classic;html=1;rounded=0;" parent="1" edge="1">
          <mxGeometry width="50" height="50" relative="1" as="geometry">
            <mxPoint x="692" y="440" as="sourcePoint" />
            <mxPoint x="692" y="660" as="targetPoint" />
          </mxGeometry>
        </mxCell>
        <mxCell id="YlNA492H2YgrrMgGbjNw-75" value="Bugfix4" style="edgeLabel;html=1;align=center;verticalAlign=middle;resizable=0;points=[];" parent="YlNA492H2YgrrMgGbjNw-74" vertex="1" connectable="0">
          <mxGeometry x="-0.203" y="1" relative="1" as="geometry">
            <mxPoint as="offset" />
          </mxGeometry>
        </mxCell>
        <mxCell id="YlNA492H2YgrrMgGbjNw-82" value="QA test" style="text;html=1;align=center;verticalAlign=middle;resizable=0;points=[];autosize=1;strokeColor=none;fillColor=none;" parent="1" vertex="1">
          <mxGeometry x="327" y="768" width="60" height="30" as="geometry" />
        </mxCell>
        <mxCell id="YlNA492H2YgrrMgGbjNw-86" value="Regression" style="text;html=1;align=center;verticalAlign=middle;resizable=0;points=[];autosize=1;strokeColor=none;fillColor=none;" parent="1" vertex="1">
          <mxGeometry x="646" y="768" width="80" height="30" as="geometry" />
        </mxCell>
        <mxCell id="YlNA492H2YgrrMgGbjNw-89" value="" style="endArrow=none;html=1;rounded=0;" parent="1" edge="1">
          <mxGeometry width="50" height="50" relative="1" as="geometry">
            <mxPoint x="830" y="570" as="sourcePoint" />
            <mxPoint x="1030" y="570" as="targetPoint" />
          </mxGeometry>
        </mxCell>
        <mxCell id="YlNA492H2YgrrMgGbjNw-90" value="HotFixes" style="edgeLabel;html=1;align=center;verticalAlign=middle;resizable=0;points=[];" parent="YlNA492H2YgrrMgGbjNw-89" vertex="1" connectable="0">
          <mxGeometry x="0.6843" relative="1" as="geometry">
            <mxPoint as="offset" />
          </mxGeometry>
        </mxCell>
        <mxCell id="YlNA492H2YgrrMgGbjNw-91" value="" style="endArrow=classic;html=1;rounded=0;" parent="1" edge="1">
          <mxGeometry width="50" height="50" relative="1" as="geometry">
            <mxPoint x="827" y="720" as="sourcePoint" />
            <mxPoint x="830" y="570" as="targetPoint" />
          </mxGeometry>
        </mxCell>
        <mxCell id="YlNA492H2YgrrMgGbjNw-92" value="" style="endArrow=classic;html=1;rounded=0;" parent="1" edge="1">
          <mxGeometry width="50" height="50" relative="1" as="geometry">
            <mxPoint x="930" y="570" as="sourcePoint" />
            <mxPoint x="930" y="510" as="targetPoint" />
          </mxGeometry>
        </mxCell>
        <mxCell id="YlNA492H2YgrrMgGbjNw-94" value="Merge" style="edgeLabel;html=1;align=center;verticalAlign=middle;resizable=0;points=[];" parent="YlNA492H2YgrrMgGbjNw-92" vertex="1" connectable="0">
          <mxGeometry x="0.0333" y="-1" relative="1" as="geometry">
            <mxPoint as="offset" />
          </mxGeometry>
        </mxCell>
        <mxCell id="YlNA492H2YgrrMgGbjNw-93" value="" style="endArrow=classic;html=1;rounded=0;" parent="1" edge="1">
          <mxGeometry width="50" height="50" relative="1" as="geometry">
            <mxPoint x="933" y="570" as="sourcePoint" />
            <mxPoint x="933" y="620" as="targetPoint" />
          </mxGeometry>
        </mxCell>
        <mxCell id="YlNA492H2YgrrMgGbjNw-95" value="Merge" style="edgeLabel;html=1;align=center;verticalAlign=middle;resizable=0;points=[];" parent="YlNA492H2YgrrMgGbjNw-93" vertex="1" connectable="0">
          <mxGeometry x="-0.0971" y="1" relative="1" as="geometry">
            <mxPoint as="offset" />
          </mxGeometry>
        </mxCell>
        <mxCell id="x1a_r0KJdxYmS9m32D6m-4" value="Development" style="text;html=1;align=center;verticalAlign=middle;resizable=0;points=[];autosize=1;strokeColor=none;fillColor=none;" vertex="1" parent="1">
          <mxGeometry x="167" y="769" width="90" height="30" as="geometry" />
        </mxCell>
      </root>
    </mxGraphModel>
  </diagram>
</mxfile>
